<svg width="39" height="36" viewBox="0 0 39 36" fill="none" xmlns="http://www.w3.org/2000/svg">
<path d="M39 18C39 17.3163 38.7232 16.7063 38.1695 16.17C37.6158 15.6336 36.8775 15.2092 35.9547 14.8968C35.0319 14.5845 34.0226 14.4283 32.9268 14.4283H25.9539C25.4694 14.4283 25.1031 14.3723 24.8551 14.2603C24.6071 14.1483 24.3389 13.9273 24.0505 13.5972L12.4232 0.636542C12.0426 0.212181 11.5985 0 11.0909 0H9.08386C8.86468 0 8.70031 0.0884087 8.59074 0.265226C8.48113 0.442044 8.48401 0.654225 8.59939 0.901771L14.5861 14.4283L5.79636 15.4538L2.6646 9.58349C2.43389 9.15913 2.0417 8.94695 1.48802 8.94695H0.744007C0.524844 8.94695 0.346052 9.01474 0.207631 9.15032C0.0692103 9.28585 0 9.47149 0 9.70726V26.2927C0 26.5167 0.0692103 26.6965 0.207631 26.832C0.346052 26.9676 0.524844 27.0354 0.744007 27.0354H1.48802C2.0417 27.0354 2.43389 26.8291 2.6646 26.4165L5.79636 20.5462L14.5861 21.5718L8.59939 35.0982C8.48401 35.3458 8.48113 35.558 8.59074 35.7348C8.70031 35.9116 8.86468 36 9.08386 36H11.0909C11.5985 36 12.0426 35.7878 12.4232 35.3635L24.0505 22.3851C24.3389 22.055 24.6071 21.8369 24.8551 21.7309C25.1031 21.6248 25.4694 21.5718 25.9539 21.5718H32.9268C34.0226 21.5718 35.0319 21.4156 35.9547 21.1032C36.8775 20.7908 37.6158 20.3664 38.1695 19.8301C38.7232 19.2937 39 18.6837 39 18Z" fill="black" fill-opacity="0.85"/>
</svg>
