<svg width="6" height="9" viewBox="0 0 6 9" fill="none" xmlns="http://www.w3.org/2000/svg">
<path d="M0.812378 8.92303C0.640879 8.92303 0.494275 8.86356 0.372566 8.74462C0.250857 8.62568 0.190002 8.48046 0.190002 8.30896C0.190002 8.13746 0.253623 7.98809 0.380864 7.86085L3.73339 4.51662L0.380864 1.17238C0.253623 1.04514 0.190002 0.895772 0.190002 0.724273C0.190002 0.552774 0.250857 0.407553 0.372566 0.28861C0.494275 0.169667 0.640879 0.110195 0.812378 0.110195C0.972813 0.110195 1.11665 0.168284 1.24389 0.284461L5.02794 4.05191C5.16071 4.17362 5.2271 4.32852 5.2271 4.51662C5.2271 4.69365 5.16071 4.84855 5.02794 4.98132L1.24389 8.74877C1.12772 8.86495 0.983877 8.92303 0.812378 8.92303Z" fill="#0066CC"/>
</svg>
