<svg width="34" height="32" viewBox="0 0 34 32" fill="none" xmlns="http://www.w3.org/2000/svg">
<path d="M1.84712 31.3675C2.05417 31.3675 2.26667 31.3323 2.48462 31.2621C2.70257 31.1918 2.94231 31.0809 3.20385 30.9296L11.524 26.4856L20.5635 31.5134C21.1519 31.8378 21.7622 32 22.3943 32C22.9936 32 23.5385 31.8594 24.0289 31.5784L32.5779 26.7613C33.0683 26.491 33.4279 26.1585 33.6568 25.7638C33.8856 25.3692 34 24.9015 34 24.3609V2.51394C34 1.91925 33.8393 1.45971 33.5178 1.13533C33.1963 0.810947 32.7414 0.648759 32.1529 0.648759C31.9459 0.648759 31.7334 0.683899 31.5154 0.75418C31.2974 0.824466 31.0523 0.92989 30.7799 1.07045L22.1163 5.85505L13.2404 0.454131C12.7391 0.151377 12.1888 0 11.5895 0C10.9792 0 10.418 0.151377 9.90576 0.454131L1.40577 5.25495C0.926283 5.52526 0.572116 5.85775 0.343269 6.25241C0.114423 6.64706 0 7.12012 0 7.67161V29.4861C0 30.0916 0.160737 30.5566 0.482212 30.8809C0.803687 31.2053 1.25866 31.3675 1.84712 31.3675ZM10.4615 23.9067L3.08943 27.9291C2.98045 27.9831 2.89872 28.0102 2.84424 28.0102C2.70257 28.0102 2.63173 27.9237 2.63173 27.7507V8.30411C2.63173 8.10946 2.6726 7.93918 2.75433 7.79324C2.83606 7.64727 2.97501 7.5202 3.17116 7.41205L9.87309 3.51952C9.98205 3.46545 10.0829 3.41139 10.1755 3.35733C10.2681 3.30326 10.3635 3.2492 10.4615 3.19514V23.9067ZM13.0933 24.1663V3.53574C13.1805 3.57899 13.2677 3.62494 13.3548 3.6736C13.442 3.72226 13.5292 3.77362 13.6164 3.82768L20.9068 8.23921V28.5129C20.7869 28.4481 20.667 28.3859 20.5471 28.3265C20.4273 28.267 20.3074 28.2048 20.1875 28.1399L13.0933 24.1663ZM23.5385 28.8049V8.07705L30.9106 4.08718C31.0196 4.03311 31.0958 4.00608 31.1395 4.00608C31.2157 4.00608 31.2729 4.02771 31.3111 4.07096C31.3492 4.11421 31.3683 4.17909 31.3683 4.26559V23.7122C31.3683 23.9068 31.3274 24.0798 31.2457 24.2311C31.164 24.3825 31.025 24.5123 30.8289 24.6204L24.2741 28.3994C24.1542 28.4751 24.0316 28.5454 23.9063 28.6103C23.781 28.6751 23.6583 28.74 23.5385 28.8049Z" fill="black" fill-opacity="0.85"/>
</svg>
