<svg width="80" height="73" viewBox="0 0 80 73" fill="none" xmlns="http://www.w3.org/2000/svg">
<path d="M9.48219 72.583H69.7194C71.6354 72.583 73.297 72.1668 74.7026 71.336C76.1098 70.5052 77.1887 69.3807 77.9426 67.9625C78.698 66.5444 79.0749 64.966 79.0749 63.2274C79.0749 62.4343 78.9713 61.6554 78.7671 60.8889C78.5629 60.121 78.2567 59.3671 77.8468 58.6258L47.6709 4.75395C46.8024 3.196 45.6402 2.0134 44.1828 1.20773C42.7253 0.402052 41.2051 0 39.6204 0C38.0342 0 36.5076 0.402052 35.0376 1.20773C33.5676 2.0134 32.3992 3.196 31.5291 4.75395L1.39245 58.6635C0.549086 60.1979 0.126617 61.7197 0.126617 63.2274C0.126617 64.966 0.509824 66.5444 1.27624 67.9625C2.04422 69.3807 3.12316 70.5052 4.51621 71.336C5.90926 72.1668 7.56458 72.583 9.48219 72.583Z" fill="#FFCC00"/>
<path d="M39.6581 46.9317C37.6133 46.9317 36.5658 45.8826 36.5139 43.7875L36.0161 22.8902C35.9894 21.8929 36.3161 21.0621 36.9929 20.3978C37.6698 19.7335 38.5462 19.4021 39.6204 19.4021C40.668 19.4021 41.5427 19.7398 42.2463 20.4182C42.9483 21.0951 43.2876 21.9322 43.2624 22.9295L42.6876 43.7875C42.6609 45.8826 41.6511 46.9317 39.6581 46.9317ZM39.6581 59.7769C38.5069 59.7769 37.5049 59.3796 36.6474 58.5881C35.7915 57.795 35.3643 56.8244 35.3643 55.6732C35.3643 54.5487 35.7852 53.5781 36.6286 52.7599C37.472 51.9416 38.4818 51.5333 39.6581 51.5333C40.8077 51.5333 41.8113 51.9354 42.6672 52.741C43.5247 53.5451 43.9519 54.5236 43.9519 55.6732C43.9519 56.8244 43.5247 57.795 42.6672 58.5881C41.8113 59.3796 40.8077 59.7769 39.6581 59.7769Z" fill="black"/>
</svg>
